<svg xmlns="http://www.w3.org/2000/svg" viewBox="0 0 540.29999 554.8678" width="540.3" height="554.868"><g fill="#fff"><path stroke-miterlimit="10" d="M430.7 96.39l96.7 41.6.1 51.6m-416.1-93.5l-96.7 41.6-.1 51.6" stroke="#303244" stroke-width="18"/><path d="M24.459 178.452l56.71-56.71 25.243 25.244-56.71 56.71zm418.421-42.259l20.09-17.738 54.672 61.917-20.089 17.738z"/></g><path d="M43.9 384.69v-242.3l224.4 121.6v274.4z" fill="#eea902"/><path d="M494.7 141.29v242l-226.4 155.1v-274.4z" fill="#f9af14"/><path d="M268.3 263.99l226.4-122.7-224.3-95.9-226.5 97z" fill="#ffda46"/><path stroke-miterlimit="10" d="M188.6 484.79l79.8 54.4 73.5-50.8" fill="none" stroke="#303244" stroke-width="18"/><path stroke-miterlimit="10" d="M531.3 160.49v229.9l-215 147.3v-260.7zM9 391.69v-230.2l213.2 115.5v260.8zm260.3-174.2l215-116.6-213.1-91.1-215.1 92.2z" fill="#fff" stroke="#303244" stroke-width="18"/></svg>