<svg xmlns="http://www.w3.org/2000/svg" width="2386" height="2489" fill="none" viewBox="0 0 2386 2489"><path fill="#fff" fill-rule="evenodd" d="M411.479 436.905C488.836 499.754 517.856 494.959 663.122 485.266L2032.6 403.036C2061.64 403.036 2037.49 374.06 2027.8 369.245L1800.36 204.823C1756.78 170.988 1698.72 132.241 1587.44 141.934L261.378 238.653C213.017 243.448 203.358 267.629 222.616 287.01L411.479 436.905ZM493.7 756.061V2196.99C493.7 2274.43 532.398 2303.4 619.497 2298.61L2124.55 2211.52C2211.69 2206.73 2221.4 2153.46 2221.4 2090.55V659.298C2221.4 596.492 2197.24 562.624 2143.9 567.458L571.101 659.298C513.056 664.176 493.695 693.211 493.695 756.061H493.7ZM1979.48 833.354C1989.13 876.916 1979.48 920.439 1935.84 925.337L1863.32 939.786V2003.57C1800.36 2037.41 1742.3 2056.75 1693.92 2056.75C1616.46 2056.75 1597.06 2032.56 1539.04 1960.07L1064.7 1215.41V1935.89L1214.8 1969.76C1214.8 1969.76 1214.8 2056.75 1093.7 2056.75L759.856 2076.12C750.158 2056.75 759.856 2008.44 793.72 1998.76L880.838 1974.62V1022.01L759.88 1012.32C750.177 968.757 774.339 905.946 842.14 901.073L1200.28 876.931L1693.92 1631.28V963.961L1568.06 949.518C1558.4 896.263 1597.06 857.594 1645.46 852.799L1979.48 833.354ZM150.04 108.104L1529.36 6.52708C1698.74 -8.00004 1742.32 1.732 1848.78 79.0648L2289.08 388.528C2361.73 441.744 2385.94 456.232 2385.94 514.242V2211.52C2385.94 2317.89 2347.19 2380.8 2211.72 2390.42L609.912 2487.15C508.212 2492 459.811 2477.51 406.552 2409.77L82.3116 1989.08C24.2178 1911.64 0.0565186 1853.71 0.0565186 1785.94V277.282C0.0565186 190.296 38.8183 117.734 150.04 108.104V108.104Z" clip-rule="evenodd"/></svg>