<svg xmlns="http://www.w3.org/2000/svg" width="320" height="320" preserveAspectRatio="xMidYMid meet" version="1.0" viewBox="0 0 240 240"><g fill="#000" stroke="none"><path d="M1083 2390 c-530 -59 -946 -435 -1054 -950 -30 -145 -30 -335 0 -480 98 -470 461 -833 931 -931 144 -30 334 -30 480 1 469 96 834 461 930 930 31 146 31 336 1 480 -85 409 -367 735 -764 884 -142 54 -374 83 -524 66z m409 -609 c177 -61 288 -215 288 -401 0 -124 -43 -223 -131 -306 -108 -101 -158 -114 -421 -114 l-208 0 0 -180 0 -180 -120 0 -120 0 0 600 0 600 328 0 c297 0 334 -2 384 -19z" transform="translate(0.000000,240.000000) scale(0.100000,-0.100000)"/><path d="M1020 1380 l0 -180 173 0 c94 0 190 5 212 11 88 25 147 125 124 211 -14 53 -72 112 -124 127 -22 6 -118 11 -212 11 l-173 0 0 -180z" transform="translate(0.000000,240.000000) scale(0.100000,-0.100000)"/></g></svg>