<svg xmlns="http://www.w3.org/2000/svg" xmlns:xlink="http://www.w3.org/1999/xlink" width="24" height="24" version="1.1" viewBox="0 0 24 24"><g id="surface1"><path style="stroke:none;fill-rule:nonzero;fill:#000;fill-opacity:1" d="M 10.828125 0.101562 C 5.53125 0.691406 1.371094 4.449219 0.289062 9.601562 C -0.0117188 11.050781 -0.0117188 12.949219 0.289062 14.398438 C 1.269531 19.101562 4.898438 22.730469 9.601562 23.710938 C 11.039062 24.011719 12.941406 24.011719 14.398438 23.699219 C 19.089844 22.738281 22.738281 19.089844 23.699219 14.398438 C 24.011719 12.941406 24.011719 11.039062 23.710938 9.601562 C 22.859375 5.511719 20.039062 2.25 16.070312 0.761719 C 14.648438 0.21875 12.328125 -0.0703125 10.828125 0.101562 Z M 14.921875 6.191406 C 16.691406 6.800781 17.800781 8.339844 17.800781 10.199219 C 17.800781 11.441406 17.371094 12.429688 16.488281 13.261719 C 15.410156 14.269531 14.910156 14.398438 12.28125 14.398438 L 10.199219 14.398438 L 10.199219 18 L 7.800781 18 L 7.800781 6 L 11.078125 6 C 14.050781 6 14.421875 6.019531 14.921875 6.191406 Z M 14.921875 6.191406"/><path style="stroke:none;fill-rule:nonzero;fill:#000;fill-opacity:1" d="M 10.199219 10.199219 L 10.199219 12 L 11.929688 12 C 12.871094 12 13.828125 11.949219 14.050781 11.890625 C 14.929688 11.640625 15.519531 10.640625 15.289062 9.78125 C 15.148438 9.25 14.570312 8.660156 14.050781 8.511719 C 13.828125 8.449219 12.871094 8.398438 11.929688 8.398438 L 10.199219 8.398438 Z M 10.199219 10.199219"/></g></svg>